<?xml version="1.0" standalone="no"?>
<!DOCTYPE svg PUBLIC "-//W3C//DTD SVG 20010904//EN"
 "http://www.w3.org/TR/2001/REC-SVG-20010904/DTD/svg10.dtd">
<svg version="1.0" xmlns="http://www.w3.org/2000/svg"
 width="700.000000pt" height="700.000000pt" viewBox="0 0 700.000000 700.000000"
 preserveAspectRatio="xMidYMid meet">
<metadata>
Created by potrace 1.14, written by Peter Selinger 2001-2017
</metadata>
<g transform="translate(0.000000,700.000000) scale(0.100000,-0.100000)"
fill="#000000" stroke="none">
<path d="M4875 5670 c-58 -17 -317 -87 -353 -95 -9 -2 -51 -14 -92 -25 -41
-11 -86 -23 -100 -26 -14 -3 -38 -10 -55 -15 -16 -6 -86 -25 -155 -43 -109
-28 -125 -35 -122 -52 3 -16 83 -314 98 -366 5 -17 -73 -18 -1546 -18 l-1552
0 -38 -21 c-39 -22 -71 -66 -81 -111 -5 -24 -3 -28 15 -29 11 0 86 -1 165 -2
l144 -2 1 -327 1 -328 -161 0 c-88 0 -163 -3 -166 -6 -3 -3 -1 -21 5 -41 15
-48 70 -101 115 -109 36 -7 3096 -12 3137 -6 20 3 20 10 20 377 0 206 3 371 6
367 3 -4 13 -34 22 -67 20 -81 59 -229 92 -350 44 -164 76 -279 79 -290 2 -5
6 -23 11 -40 4 -16 37 -138 72 -270 36 -132 69 -256 73 -275 14 -59 80 -303
90 -336 6 -17 12 -40 14 -50 2 -10 16 -63 31 -117 14 -53 28 -105 30 -115 4
-17 45 -169 245 -912 61 -228 113 -422 115 -430 11 -47 57 -215 60 -221 2 -3
53 7 112 23 59 16 151 40 203 54 52 14 128 34 170 45 41 12 82 22 90 24 131
32 367 100 372 109 4 5 4 14 1 19 -3 5 -18 57 -34 116 -15 58 -48 180 -72 271
-25 91 -59 219 -76 285 -18 66 -43 158 -56 205 -13 47 -40 148 -61 225 -20 77
-45 172 -56 210 -10 39 -20 79 -23 90 -2 11 -13 52 -24 90 -10 39 -31 115 -46
170 -15 55 -49 183 -77 285 -45 167 -70 263 -83 312 -2 10 -26 100 -53 200
-44 163 -59 220 -68 253 -1 6 -16 62 -34 125 -17 63 -33 122 -35 130 -3 14
-28 110 -60 225 -8 28 -30 111 -50 185 -19 74 -49 185 -65 245 -16 61 -50 189
-76 285 -26 96 -49 178 -53 181 -3 3 -33 -2 -66 -11z"/>
<path d="M1621 3698 c-44 -22 -89 -84 -87 -121 1 -22 3 -22 161 -22 l160 0 3
-328 2 -327 -166 0 -166 0 6 -32 c8 -43 28 -71 73 -105 l36 -28 1256 0 1256 0
0 490 0 490 -1247 2 c-1233 1 -1247 1 -1287 -19z"/>
<path d="M982 2394 c-20 -7 -50 -28 -65 -46 -26 -31 -48 -85 -41 -100 2 -3 66
-6 142 -6 75 -1 148 -1 162 -1 l25 -1 0 -334 c0 -221 -3 -332 -10 -326 -5 4
-80 7 -165 6 l-155 -1 4 -25 c8 -58 53 -110 111 -128 25 -8 496 -11 1600 -12
l1566 0 -1 493 0 492 -1568 1 c-1243 0 -1575 -2 -1605 -12z"/>
</g>
</svg>
