<?xml version="1.0" standalone="no"?>
<!DOCTYPE svg PUBLIC "-//W3C//DTD SVG 20010904//EN"
 "http://www.w3.org/TR/2001/REC-SVG-20010904/DTD/svg10.dtd">
<svg version="1.0" xmlns="http://www.w3.org/2000/svg"
 width="700.000000pt" height="700.000000pt" viewBox="0 0 700.000000 700.000000"
 preserveAspectRatio="xMidYMid meet">

<g transform="translate(0.000000,700.000000) scale(0.100000,-0.100000)"
fill="#000000" stroke="none">
<path d="M1405 6936 c-144 -46 -255 -175 -285 -335 -14 -75 -14 -6061 1 -6151
12 -81 55 -175 104 -229 21 -22 67 -55 103 -73 60 -30 75 -33 157 -33 84 0 95
3 175 41 203 97 1061 586 3124 1782 683 396 923 540 967 580 70 64 116 150
129 243 13 90 13 1457 0 1538 -20 119 -86 210 -215 297 -33 23 -897 524 -1920
1114 -1023 590 -1909 1102 -1969 1138 -162 97 -266 121 -371 88z m2030 -1740
c891 -514 1621 -938 1622 -943 2 -6 -3305 -1920 -3337 -1931 -7 -3 -10 668
-10 1933 l0 1936 53 -30 c28 -16 781 -450 1672 -965z m1855 -1891 l0 -375 -37
-23 c-211 -132 -3471 -2012 -3528 -2033 -14 -6 -15 36 -13 372 l3 378 1780
1028 c979 565 1783 1028 1788 1028 4 0 7 -169 7 -375z"/>
</g>
</svg>
