<svg xmlns="http://www.w3.org/2000/svg" width="121" height="14" fill="none" xmlns:v="https://vecta.io/nano"><path d="M3.64 13L2 13.08.76 13.2.9 11.88c.573-.107.96-.267 1.16-.48.2-.227.3-.6.3-1.12l.02-7.84c0-.373-.047-.633-.14-.78s-.26-.22-.5-.22l-.4.02-.28.02-.14-.16.18-1.2 1.16.02 1.6.02 1.7-.04L6.88.06c1.373 0 2.42.267 3.14.8s1.08 1.3 1.08 2.3c0 .667-.193 1.26-.58 1.78-.373.507-.9.933-1.58 1.28.867.227 1.553.587 2.06 1.08.52.493.78 1.127.78 1.9 0 .787-.22 1.487-.66 2.1-.427.6-1.033 1.067-1.82 1.4-.773.333-1.673.5-2.7.5-.16 0-.38-.013-.66-.04l-.64-.06-.8-.06-.86-.04zm1.38-7.36l.96.1.96.08c0 .027.127-.04.38-.2.267-.173.5-.42.7-.74.213-.32.32-.727.32-1.22 0-.68-.227-1.18-.68-1.5s-1.16-.48-2.12-.48c-.133 0-.227.027-.28.08-.04.053-.067.153-.08.3l-.16 3.58zm-.12 4.7c0 .427.147.733.44.92.293.173.78.26 1.46.26.653 0 1.167-.18 1.54-.54s.56-.853.56-1.48c0-.547-.18-1-.54-1.36-.347-.373-.853-.633-1.52-.78l-1.86.02-.08 2.96zm13.319 2.84c-1.493 0-2.667-.433-3.52-1.3-.84-.88-1.26-2.093-1.26-3.64 0-1.107.22-2.067.66-2.88a4.53 4.53 0 0 1 1.88-1.9c.827-.44 1.787-.66 2.88-.66 1.52 0 2.7.433 3.54 1.3.84.853 1.26 2.053 1.26 3.6 0 1.107-.227 2.073-.68 2.9-.44.827-1.073 1.467-1.9 1.92-.813.44-1.767.66-2.86.66zm.4-1.5c.72 0 1.273-.267 1.66-.8s.58-1.307.58-2.32c0-1.36-.213-2.38-.64-3.06a1.98 1.98 0 0 0-1.8-1.02c-.707 0-1.247.26-1.62.78s-.56 1.293-.56 2.32c0 1.373.2 2.4.6 3.08.413.68 1.007 1.02 1.78 1.02zm11.326 1.5c-1.493 0-2.667-.433-3.52-1.3-.84-.88-1.26-2.093-1.26-3.64 0-1.107.22-2.067.66-2.88a4.53 4.53 0 0 1 1.88-1.9c.827-.44 1.787-.66 2.88-.66 1.52 0 2.7.433 3.54 1.3.84.853 1.26 2.053 1.26 3.6 0 1.107-.227 2.073-.68 2.9-.44.827-1.073 1.467-1.9 1.92-.813.44-1.767.66-2.86.66zm.4-1.5c.72 0 1.273-.267 1.66-.8s.58-1.307.58-2.32c0-1.36-.213-2.38-.64-3.06a1.98 1.98 0 0 0-1.8-1.02c-.707 0-1.247.26-1.62.78s-.56 1.293-.56 2.32c0 1.373.2 2.4.6 3.08.413.68 1.007 1.02 1.78 1.02zm7.966-6.78c0-.333-.04-.547-.12-.64-.08-.107-.24-.16-.48-.16h-.48l-.1-.16.14-.98 2.3.02 1.26-.04 1.12-.06-.08 1.14c-.413.08-.687.18-.82.3-.133.107-.207.307-.22.6l-.16 5.92c-.013.427.02.713.1.86.093.133.267.2.52.2.16 0 .293-.007.4-.02l.22-.02.08.12-.14 1.06a47.8 47.8 0 0 1-1.04-.02l-1.42-.02-1.46.02-.92.02.16-1.08c.467-.067.767-.173.9-.32.147-.16.22-.467.22-.92l.02-5.82zm5.02.42c.267-.267.4-.52.4-.76 0-.16-.067-.273-.2-.34-.12-.08-.327-.127-.62-.14l-.06-.12.14-1.04.86.04 1.26.02 1.18-.02.82-.04.14.18-.14.96c-.347.147-.687.367-1.02.66-.32.28-.72.7-1.2 1.26l-1.5 1.58 2.04 3.04c.32.48.613.827.88 1.04.28.2.6.313.96.34l.12.16-.14.92-.94.08-1.1.1a1.7 1.7 0 0 1-.98-.3c-.28-.213-.567-.547-.86-1l-2.4-3.86.04-.38 2.32-2.38zm29.354 7.98l-1.28-4.68-1.7-5.96c-.12-.413-.3-.713-.54-.9-.227-.2-.547-.307-.96-.32l-.08-.14.14-1.18 1.02.02 1.5.02 1.96-.06 1.4-.1.1.16-.08 1.18-1.02.16c-.213.04-.36.107-.44.2-.067.093-.1.233-.1.42 0 .293.26 1.553.78 3.78l1.08 4.52h.3c.32-.813.827-2.34 1.52-4.58l1.04-3.8c0-.227-.08-.387-.24-.48-.147-.093-.413-.14-.8-.14h-.8l-.08-.14.12-1.22 1.22.06 1.74.04 1.44-.02.88-.02-.14 1.3c-.333.053-.567.147-.7.28-.133.12-.267.373-.4.76l-3.7 10.44-3.18.4zm9.201-1.28c.48-.093.793-.22.94-.38.147-.173.22-.48.22-.92l.02-5.82c0-.32-.04-.533-.12-.64s-.24-.16-.48-.16h-.54l-.08-.16.1-.98 2.38.02 1.3-.04 1.14-.06-.1 1.14c-.413.053-.687.133-.82.24-.12.107-.193.307-.22.6l-.2 5.98c0 .427.04.713.12.86.08.133.247.2.5.2l.42-.02.24-.02.1.12-.14 1.06c-.187 0-.54-.007-1.06-.02l-1.46-.02-1.36.04-1.02.08.12-1.1zm11.286 1.16l-1.08-.12-1.42-.06-1.26.06-.9.1.1-1.18c.453-.067.76-.187.92-.36.16-.187.24-.5.24-.94l.02-5.74c0-.333-.04-.553-.12-.66-.067-.12-.193-.18-.38-.18-.12 0-.233.007-.34.02l-.2.02-.1-.16.14-1.04.9.02 1.26.02 1.54-.02 1.1-.06c1.68 0 2.987.407 3.92 1.22s1.4 1.967 1.4 3.46c0 1.107-.24 2.087-.72 2.94-.48.84-1.16 1.493-2.04 1.96-.867.467-1.86.7-2.98.7zm-.4-8.76c-.173 0-.293.027-.36.08-.053.053-.087.153-.1.3l-.2 5.86c0 .413.08.687.24.82.173.133.5.2.98.2 1.84 0 2.76-1.2 2.76-3.6 0-1.293-.267-2.227-.8-2.8s-1.373-.86-2.52-.86zm7.877 7.58c.454-.053.76-.173.92-.36.16-.2.24-.533.24-1l.02-5.7c0-.333-.033-.553-.1-.66-.066-.12-.206-.18-.42-.18l-.48.02-.12-.16.14-1.02 1.22.02 1.96.02 5.04-.18.14.18c-.04.173-.106.553-.2 1.14l-.18 1.78-1.66.1a2.87 2.87 0 0 1 .02-.24c.014-.133.02-.26.02-.38 0-.293-.046-.5-.14-.62s-.273-.2-.54-.24c-.266-.053-.706-.08-1.32-.08-.36 0-.586.027-.68.08-.08.053-.126.187-.14.4l-.1 2.26h1.48l1.02-.04.88-.08.16.18-.24 1.44c-.146 0-.426-.007-.84-.02l-1.28-.02c-.36 0-.773.033-1.24.1l-.04 1.96c0 .293.02.5.06.62a.42.42 0 0 0 .26.26c.134.04.36.06.68.06.667 0 1.154-.04 1.46-.12.307-.093.527-.253.66-.48.134-.24.24-.627.32-1.16l1.52-.12.16.18c-.04.16-.113.533-.22 1.12l-.24 1.86-.18.18-2.18-.06-3-.04-1.82.06-1.14.1.12-1.16zm14.86 1.18c-1.493 0-2.667-.433-3.52-1.3-.84-.88-1.26-2.093-1.26-3.64 0-1.107.22-2.067.66-2.88.44-.827 1.067-1.46 1.88-1.9.827-.44 1.787-.66 2.88-.66 1.52 0 2.7.433 3.54 1.3.84.853 1.26 2.053 1.26 3.6 0 1.107-.227 2.073-.68 2.9-.44.827-1.073 1.467-1.9 1.92-.813.44-1.767.66-2.86.66zm.4-1.5c.72 0 1.273-.267 1.66-.8s.58-1.307.58-2.32c0-1.36-.213-2.38-.64-3.06a1.98 1.98 0 0 0-1.8-1.02c-.707 0-1.247.26-1.62.78s-.56 1.293-.56 2.32c0 1.373.2 2.4.6 3.08.413.68 1.007 1.02 1.78 1.02z" fill="#eee5e0"/><path d="M48.818 11.9c.587-.12.98-.287 1.18-.5.2-.227.3-.62.3-1.18V2.48c0-.413-.047-.687-.14-.82-.093-.147-.287-.22-.58-.22l-.7.02-.1-.16.16-1.16 2.76.02c.44 0 1.373-.047 2.8-.14l-.1 1.32c-.507.067-.847.173-1.02.32-.16.133-.253.387-.28.76l-.26 7.94c0 .547.053.913.16 1.1s.313.28.62.28c.147 0 .44-.02.88-.06l.08.12-.18 1.26-.72-.02-2.22-.04c-.613 0-1.533.06-2.76.18l.12-1.28zm15.525-7.14c-.013-.253-.06-.427-.14-.52s-.213-.14-.4-.14h-.56l-.06-.14.1-1.04.9.04 1.34.02 1.24-.02.78-.06-.08 1.14c-.36.053-.62.153-.78.3-.147.147-.227.373-.24.68l-.24 8.14-1.98.2-2.86-4.08-1.68-2.36h-.18v4.26c0 .28.04.473.12.58.093.107.247.16.46.16.12 0 .247-.007.38-.02l.3-.02.1.1-.18 1.08a17.96 17.96 0 0 1-.9-.04l-1.3-.02-1.26.04-.86.08.14-1.14c.333-.04.573-.133.72-.28s.227-.38.24-.7l.22-5.96c0-.333-.087-.56-.26-.68-.173-.133-.527-.233-1.06-.3l-.14-.16.12-1 .82.06 1.18.02 1.06-.02.64-.04 2.5 3.74 1.66 2.28h.18l-.04-4.18z" fill="#d79c6b"/></svg>